<svg xmlns="http://www.w3.org/2000/svg" width="512" height="512" viewBox="0 0 512 512">
  <rect width="512" height="512" rx="100" fill="#3b7dff"/>
  <path d="M256 96c-88.4 0-160 71.6-160 160 0 30 8.3 58 22.6 82L96 416l81-21.2C201.8 409 228 416 256 416c88.4 0 160-71.6 160-160S344.4 96 256 96zm72 225.6c-3.1 8.6-17.7 16.6-24.3 17.7-6.6 1.1-15.1 1.7-24.3-1.4-5.7-2-13-4.6-22.3-9.1-39.1-18.9-64.6-58.6-66.6-61.1-2-2.9-15.4-20.6-15.4-39.1 0-18.6 9.7-27.7 13.1-31.4 3.4-3.7 7.4-4.6 10-4.6h7.1c2.3 0 5.4-.9 8.3 6.3 3.1 7.4 10.6 26 11.4 28 .9 2 1.7 4 .3 6.6-1.4 2.6-2 4-4.3 6.3-2 2.3-4.3 4.9-6.3 6.6-2 2-4.3 4.3-1.7 8.3 2.3 4 10.6 17.4 22.9 28.3 15.7 14 29 18.3 33.1 20.3 4 2 6.3 1.7 8.9-1.1 2.3-2.9 10-11.7 12.6-15.7 2.6-4 5.4-3.4 8.9-2 3.7 1.4 22.9 10.9 26.9 12.9 4 2 6.6 2.9 7.4 4.6 1.1 1.7 1.1 10-2 16.6z" fill="white"/>
</svg>
