<svg xmlns="http://www.w3.org/2000/svg" width="192" height="192" viewBox="0 0 192 192">
  <rect width="192" height="192" rx="38" fill="#3b7dff"/>
  <path d="M96 40c-30.9 0-56 25.1-56 56 0 10.5 2.9 20.3 7.9 28.7L40 152l28.3-7.4C76.1 149.5 85.8 152 96 152c30.9 0 56-25.1 56-56s-25.1-56-56-56zm25.2 78.8c-1.1 3-6.2 5.8-8.5 6.2-2.3.4-5.3.6-8.5-.5-2-.7-4.5-1.6-7.8-3.2-13.7-6.6-22.6-20.5-23.3-21.4-.7-1-5.4-7.2-5.4-13.7 0-6.5 3.4-9.7 4.6-11 1.2-1.3 2.6-1.6 3.5-1.6h2.5c.8 0 1.9-.3 2.9 2.2 1.1 2.6 3.7 9.1 4 9.8.4.7.6 1.4.1 2.3-.5.9-.7 1.4-1.5 2.2-.7.8-1.5 1.7-2.2 2.3-.7.7-1.5 1.5-.6 2.9.8 1.4 3.7 6.1 8 9.9 5.5 4.9 10.1 6.4 11.6 7.1 1.4.7 2.2.6 3.1-.4 .8-1 3.5-4.1 4.4-5.5 .9-1.4 1.9-1.2 3.1-.7 1.3.5 8 3.8 9.4 4.5 1.4.7 2.3 1 2.6 1.6.4.6.4 3.5-.7 6.5z" fill="white"/>
</svg>
